<?xml version="1.0" encoding="UTF-8" standalone="no"?>
<!DOCTYPE svg PUBLIC "-//W3C//DTD SVG 1.1//EN" "http://www.w3.org/Graphics/SVG/1.1/DTD/svg11.dtd">
<svg width="100%" height="100%" viewBox="0 0 1103 284" version="1.1" xmlns="http://www.w3.org/2000/svg" xmlns:xlink="http://www.w3.org/1999/xlink" xml:space="preserve" xmlns:serif="http://www.serif.com/" style="fill-rule:evenodd;clip-rule:evenodd;stroke-linejoin:round;stroke-miterlimit:2;">
    <g transform="matrix(1,0,0,1,-1653.76,-1960.88)">
        <g transform="matrix(19.2287,0,0,19.2287,233.515,1494.05)">
            <g id="Logo_Reints_Office_G">
                <g transform="matrix(1,0,0,1,86.1913,36.1728)">
                    <path d="M0,0.22C0,0.62 -0.047,0.982 -0.143,1.304C-0.237,1.626 -0.378,1.899 -0.565,2.125C-0.753,2.352 -0.989,2.526 -1.273,2.647C-1.556,2.767 -1.887,2.829 -2.265,2.829C-2.638,2.829 -2.959,2.773 -3.231,2.662C-3.505,2.551 -3.728,2.389 -3.906,2.178C-4.084,1.966 -4.216,1.702 -4.302,1.388C-4.39,1.074 -4.433,0.712 -4.433,0.304C-4.433,-0.087 -4.386,-0.441 -4.292,-0.761C-4.196,-1.081 -4.055,-1.352 -3.865,-1.575C-3.678,-1.799 -3.441,-1.972 -3.157,-2.093C-2.874,-2.214 -2.543,-2.275 -2.166,-2.275C-1.8,-2.275 -1.481,-2.22 -1.211,-2.11C-0.94,-2 -0.716,-1.839 -0.535,-1.629C-0.354,-1.418 -0.221,-1.158 -0.132,-0.847C-0.044,-0.537 0,-0.181 0,0.22M-0.694,0.266C-0.694,-0.015 -0.719,-0.277 -0.769,-0.517C-0.819,-0.76 -0.901,-0.969 -1.017,-1.146C-1.134,-1.324 -1.289,-1.463 -1.483,-1.562C-1.678,-1.662 -1.917,-1.711 -2.203,-1.711C-2.49,-1.711 -2.729,-1.658 -2.924,-1.551C-3.118,-1.443 -3.275,-1.301 -3.396,-1.122C-3.518,-0.942 -3.605,-0.733 -3.658,-0.496C-3.71,-0.256 -3.736,-0.005 -3.736,0.258C-3.736,0.548 -3.711,0.818 -3.663,1.062C-3.615,1.308 -3.532,1.519 -3.419,1.697C-3.303,1.874 -3.149,2.012 -2.957,2.11C-2.763,2.209 -2.521,2.258 -2.23,2.258C-1.942,2.258 -1.699,2.204 -1.503,2.096C-1.305,1.989 -1.147,1.844 -1.027,1.663C-0.908,1.479 -0.821,1.268 -0.77,1.028C-0.719,0.788 -0.694,0.534 -0.694,0.266M2.859,-2.205C2.859,-2.157 2.856,-2.118 2.851,-2.089C2.845,-2.059 2.839,-2.035 2.833,-2.017C2.827,-2 2.818,-1.988 2.809,-1.982C2.799,-1.976 2.785,-1.972 2.769,-1.972C2.752,-1.972 2.729,-1.978 2.703,-1.989C2.675,-2 2.644,-2.014 2.605,-2.028C2.567,-2.041 2.521,-2.054 2.469,-2.066C2.417,-2.078 2.356,-2.083 2.287,-2.083C2.193,-2.083 2.112,-2.067 2.045,-2.037C1.979,-2.007 1.926,-1.959 1.884,-1.893C1.844,-1.828 1.815,-1.744 1.797,-1.641C1.778,-1.537 1.771,-1.412 1.771,-1.263L1.771,-0.888L2.539,-0.888C2.56,-0.888 2.577,-0.883 2.592,-0.875C2.606,-0.865 2.618,-0.849 2.63,-0.829C2.642,-0.806 2.651,-0.779 2.657,-0.746C2.663,-0.712 2.666,-0.672 2.666,-0.623C2.666,-0.532 2.654,-0.465 2.632,-0.425C2.609,-0.383 2.579,-0.363 2.539,-0.363L1.771,-0.363L1.771,2.66C1.771,2.68 1.765,2.698 1.755,2.711C1.745,2.726 1.727,2.737 1.702,2.748C1.679,2.758 1.646,2.766 1.606,2.771C1.564,2.777 1.513,2.779 1.452,2.779C1.391,2.779 1.339,2.777 1.299,2.771C1.258,2.766 1.225,2.758 1.2,2.748C1.177,2.737 1.16,2.726 1.15,2.711C1.139,2.698 1.134,2.68 1.134,2.66L1.134,-0.363L0.647,-0.363C0.607,-0.363 0.575,-0.383 0.556,-0.425C0.535,-0.465 0.524,-0.532 0.524,-0.623C0.524,-0.672 0.527,-0.712 0.532,-0.746C0.537,-0.779 0.545,-0.806 0.556,-0.829C0.566,-0.849 0.578,-0.865 0.594,-0.875C0.609,-0.883 0.628,-0.888 0.647,-0.888L1.134,-0.888L1.134,-1.244C1.134,-1.484 1.156,-1.69 1.2,-1.863C1.246,-2.035 1.314,-2.175 1.405,-2.285C1.499,-2.395 1.614,-2.476 1.752,-2.53C1.892,-2.582 2.055,-2.609 2.245,-2.609C2.334,-2.609 2.422,-2.599 2.505,-2.584C2.591,-2.567 2.654,-2.548 2.7,-2.53C2.747,-2.51 2.777,-2.494 2.793,-2.478C2.809,-2.462 2.821,-2.442 2.831,-2.419C2.841,-2.394 2.848,-2.365 2.852,-2.33C2.856,-2.296 2.859,-2.254 2.859,-2.205M5.176,-2.205C5.176,-2.157 5.173,-2.118 5.168,-2.089C5.163,-2.059 5.156,-2.035 5.151,-2.017C5.145,-2 5.135,-1.988 5.126,-1.982C5.116,-1.976 5.102,-1.972 5.087,-1.972C5.07,-1.972 5.046,-1.978 5.02,-1.989C4.993,-2 4.961,-2.014 4.922,-2.028C4.884,-2.041 4.838,-2.054 4.786,-2.066C4.734,-2.078 4.674,-2.083 4.604,-2.083C4.51,-2.083 4.429,-2.067 4.362,-2.037C4.297,-2.007 4.243,-1.959 4.202,-1.893C4.161,-1.828 4.132,-1.744 4.114,-1.641C4.096,-1.537 4.088,-1.412 4.088,-1.263L4.088,-0.888L4.857,-0.888C4.878,-0.888 4.894,-0.883 4.909,-0.875C4.923,-0.865 4.935,-0.849 4.947,-0.829C4.959,-0.806 4.968,-0.779 4.974,-0.746C4.981,-0.712 4.983,-0.672 4.983,-0.623C4.983,-0.532 4.972,-0.465 4.949,-0.425C4.926,-0.383 4.896,-0.363 4.857,-0.363L4.088,-0.363L4.088,2.66C4.088,2.68 4.083,2.698 4.072,2.711C4.062,2.726 4.045,2.737 4.02,2.748C3.996,2.758 3.964,2.766 3.923,2.771C3.881,2.777 3.83,2.779 3.769,2.779C3.709,2.779 3.656,2.777 3.616,2.771C3.575,2.766 3.542,2.758 3.517,2.748C3.494,2.737 3.477,2.726 3.467,2.711C3.456,2.698 3.451,2.68 3.451,2.66L3.451,-0.363L2.964,-0.363C2.924,-0.363 2.893,-0.383 2.873,-0.425C2.852,-0.465 2.841,-0.532 2.841,-0.623C2.841,-0.672 2.844,-0.712 2.849,-0.746C2.855,-0.779 2.862,-0.806 2.873,-0.829C2.883,-0.849 2.895,-0.865 2.911,-0.875C2.926,-0.883 2.945,-0.888 2.964,-0.888L3.451,-0.888L3.451,-1.244C3.451,-1.484 3.473,-1.69 3.517,-1.863C3.564,-2.035 3.631,-2.175 3.723,-2.285C3.816,-2.395 3.931,-2.476 4.069,-2.53C4.209,-2.582 4.373,-2.609 4.563,-2.609C4.651,-2.609 4.739,-2.599 4.823,-2.584C4.908,-2.567 4.972,-2.548 5.017,-2.53C5.065,-2.51 5.095,-2.494 5.11,-2.478C5.126,-2.462 5.138,-2.442 5.148,-2.419C5.159,-2.394 5.165,-2.365 5.169,-2.33C5.173,-2.296 5.176,-2.254 5.176,-2.205M6.313,2.66C6.313,2.68 6.308,2.698 6.297,2.711C6.287,2.726 6.27,2.737 6.248,2.748C6.225,2.758 6.193,2.766 6.152,2.771C6.111,2.777 6.059,2.779 5.994,2.779C5.934,2.779 5.883,2.777 5.841,2.771C5.801,2.766 5.768,2.758 5.745,2.748C5.72,2.737 5.703,2.726 5.695,2.711C5.686,2.698 5.68,2.68 5.68,2.66L5.68,-0.788C5.68,-0.806 5.686,-0.822 5.695,-0.838C5.703,-0.853 5.72,-0.867 5.745,-0.876C5.768,-0.886 5.801,-0.894 5.841,-0.899C5.883,-0.905 5.934,-0.907 5.994,-0.907C6.059,-0.907 6.111,-0.905 6.152,-0.899C6.193,-0.894 6.225,-0.886 6.248,-0.876C6.27,-0.867 6.287,-0.853 6.297,-0.838C6.308,-0.822 6.313,-0.806 6.313,-0.788L6.313,2.66ZM6.385,-1.953C6.385,-1.804 6.358,-1.704 6.302,-1.65C6.245,-1.596 6.142,-1.57 5.992,-1.57C5.843,-1.57 5.742,-1.596 5.687,-1.648C5.632,-1.701 5.605,-1.799 5.605,-1.945C5.605,-2.093 5.632,-2.194 5.688,-2.248C5.745,-2.301 5.848,-2.329 5.999,-2.329C6.147,-2.329 6.248,-2.302 6.303,-2.25C6.358,-2.198 6.385,-2.099 6.385,-1.953M9.96,2.134C9.96,2.179 9.959,2.216 9.957,2.248C9.954,2.28 9.949,2.307 9.944,2.328C9.937,2.35 9.929,2.37 9.92,2.386C9.911,2.403 9.891,2.428 9.859,2.459C9.827,2.49 9.772,2.531 9.697,2.578C9.619,2.625 9.533,2.667 9.437,2.703C9.342,2.741 9.237,2.771 9.125,2.793C9.013,2.817 8.896,2.829 8.776,2.829C8.528,2.829 8.309,2.787 8.118,2.706C7.926,2.624 7.766,2.504 7.637,2.348C7.507,2.191 7.409,1.997 7.341,1.77C7.275,1.541 7.24,1.277 7.24,0.979C7.24,0.639 7.281,0.347 7.365,0.102C7.447,-0.141 7.561,-0.341 7.706,-0.496C7.85,-0.652 8.02,-0.768 8.215,-0.843C8.411,-0.919 8.622,-0.957 8.849,-0.957C8.959,-0.957 9.066,-0.946 9.17,-0.926C9.273,-0.906 9.368,-0.879 9.455,-0.846C9.541,-0.813 9.619,-0.774 9.686,-0.731C9.754,-0.687 9.804,-0.651 9.834,-0.619C9.865,-0.589 9.886,-0.565 9.897,-0.546C9.908,-0.529 9.918,-0.508 9.925,-0.484C9.933,-0.459 9.938,-0.433 9.941,-0.401C9.944,-0.371 9.945,-0.332 9.945,-0.286C9.945,-0.187 9.933,-0.117 9.911,-0.078C9.887,-0.037 9.86,-0.018 9.826,-0.018C9.788,-0.018 9.743,-0.039 9.694,-0.081C9.644,-0.124 9.581,-0.17 9.504,-0.221C9.428,-0.272 9.336,-0.319 9.227,-0.361C9.118,-0.404 8.99,-0.425 8.841,-0.425C8.538,-0.425 8.305,-0.307 8.143,-0.074C7.981,0.16 7.9,0.499 7.9,0.943C7.9,1.166 7.921,1.36 7.963,1.527C8.004,1.695 8.067,1.835 8.148,1.947C8.23,2.06 8.33,2.143 8.449,2.199C8.568,2.254 8.704,2.281 8.857,2.281C9.002,2.281 9.13,2.258 9.24,2.211C9.35,2.166 9.445,2.115 9.525,2.06C9.606,2.005 9.674,1.956 9.729,1.911C9.784,1.867 9.826,1.844 9.857,1.844C9.874,1.844 9.89,1.849 9.903,1.859C9.916,1.869 9.927,1.886 9.936,1.911C9.945,1.936 9.95,1.966 9.954,2.002C9.958,2.04 9.96,2.084 9.96,2.134M13.741,0.787C13.741,0.885 13.716,0.958 13.666,0.999C13.617,1.041 13.56,1.062 13.497,1.062L11.235,1.062C11.235,1.254 11.255,1.426 11.293,1.58C11.331,1.733 11.395,1.864 11.485,1.974C11.574,2.084 11.691,2.169 11.833,2.228C11.977,2.286 12.151,2.315 12.359,2.315C12.522,2.315 12.667,2.302 12.795,2.274C12.923,2.248 13.034,2.218 13.127,2.184C13.219,2.151 13.296,2.121 13.357,2.095C13.417,2.068 13.461,2.055 13.492,2.055C13.51,2.055 13.527,2.058 13.54,2.068C13.554,2.077 13.565,2.09 13.572,2.108C13.58,2.127 13.587,2.151 13.591,2.183C13.593,2.214 13.596,2.254 13.596,2.299C13.596,2.333 13.595,2.362 13.592,2.386C13.589,2.41 13.587,2.431 13.583,2.451C13.579,2.471 13.572,2.487 13.563,2.503C13.554,2.518 13.542,2.533 13.529,2.546C13.515,2.561 13.473,2.584 13.404,2.615C13.335,2.647 13.246,2.678 13.136,2.71C13.026,2.74 12.899,2.767 12.755,2.792C12.611,2.816 12.457,2.829 12.294,2.829C12.01,2.829 11.761,2.789 11.548,2.71C11.335,2.63 11.156,2.512 11.009,2.357C10.864,2.201 10.754,2.006 10.68,1.771C10.607,1.536 10.569,1.262 10.569,0.951C10.569,0.655 10.608,0.389 10.684,0.152C10.761,-0.083 10.871,-0.285 11.016,-0.449C11.16,-0.614 11.334,-0.74 11.539,-0.829C11.743,-0.916 11.972,-0.961 12.224,-0.961C12.495,-0.961 12.725,-0.918 12.916,-0.83C13.105,-0.744 13.263,-0.626 13.385,-0.479C13.508,-0.333 13.597,-0.161 13.655,0.037C13.712,0.236 13.741,0.446 13.741,0.672L13.741,0.787ZM13.105,0.599C13.113,0.267 13.04,0.005 12.885,-0.182C12.73,-0.372 12.501,-0.467 12.198,-0.467C12.041,-0.467 11.905,-0.437 11.787,-0.378C11.67,-0.32 11.572,-0.241 11.493,-0.145C11.413,-0.048 11.352,0.066 11.309,0.194C11.266,0.324 11.241,0.458 11.235,0.599L13.105,0.599ZM19.211,1.366C19.211,1.597 19.167,1.804 19.083,1.985C18.997,2.167 18.879,2.32 18.726,2.447C18.574,2.574 18.396,2.669 18.19,2.732C17.985,2.796 17.764,2.829 17.526,2.829C17.359,2.829 17.205,2.815 17.064,2.786C16.923,2.758 16.796,2.724 16.685,2.683C16.573,2.642 16.481,2.6 16.405,2.557C16.329,2.512 16.277,2.476 16.248,2.446C16.218,2.414 16.197,2.375 16.183,2.328C16.168,2.281 16.162,2.218 16.162,2.139C16.162,2.082 16.164,2.036 16.169,1.998C16.175,1.962 16.183,1.932 16.192,1.91C16.202,1.886 16.215,1.87 16.231,1.861C16.245,1.852 16.264,1.848 16.284,1.848C16.32,1.848 16.371,1.869 16.435,1.912C16.5,1.957 16.584,2.004 16.686,2.055C16.789,2.106 16.912,2.154 17.056,2.199C17.2,2.243 17.367,2.265 17.555,2.265C17.7,2.265 17.83,2.246 17.949,2.208C18.068,2.17 18.171,2.115 18.255,2.046C18.342,1.975 18.407,1.888 18.453,1.787C18.499,1.685 18.523,1.568 18.523,1.437C18.523,1.298 18.49,1.177 18.425,1.078C18.363,0.979 18.277,0.891 18.173,0.815C18.068,0.739 17.949,0.672 17.815,0.609C17.681,0.546 17.543,0.482 17.402,0.416C17.263,0.352 17.125,0.279 16.993,0.2C16.86,0.12 16.741,0.028 16.636,-0.079C16.532,-0.187 16.447,-0.312 16.381,-0.457C16.317,-0.601 16.284,-0.774 16.284,-0.976C16.284,-1.183 16.322,-1.367 16.397,-1.53C16.473,-1.692 16.577,-1.828 16.711,-1.938C16.846,-2.048 17.005,-2.131 17.191,-2.189C17.375,-2.246 17.575,-2.275 17.789,-2.275C17.899,-2.275 18.011,-2.264 18.122,-2.246C18.233,-2.227 18.338,-2.202 18.436,-2.169C18.533,-2.138 18.621,-2.101 18.697,-2.062C18.774,-2.022 18.826,-1.99 18.85,-1.966C18.873,-1.941 18.889,-1.923 18.897,-1.909C18.905,-1.894 18.912,-1.876 18.916,-1.855C18.921,-1.833 18.925,-1.807 18.927,-1.777C18.93,-1.745 18.931,-1.706 18.931,-1.658C18.931,-1.612 18.93,-1.571 18.926,-1.535C18.922,-1.499 18.916,-1.469 18.909,-1.445C18.901,-1.421 18.889,-1.403 18.876,-1.391C18.861,-1.38 18.847,-1.374 18.828,-1.374C18.801,-1.374 18.756,-1.392 18.695,-1.428C18.636,-1.464 18.562,-1.503 18.477,-1.549C18.388,-1.594 18.287,-1.634 18.168,-1.671C18.048,-1.709 17.915,-1.727 17.768,-1.727C17.628,-1.727 17.508,-1.709 17.407,-1.671C17.304,-1.634 17.221,-1.585 17.154,-1.523C17.088,-1.463 17.038,-1.39 17.005,-1.305C16.971,-1.221 16.954,-1.132 16.954,-1.037C16.954,-0.899 16.987,-0.781 17.051,-0.681C17.115,-0.582 17.199,-0.493 17.306,-0.417C17.412,-0.34 17.532,-0.269 17.667,-0.206C17.803,-0.142 17.94,-0.078 18.081,-0.013C18.221,0.053 18.359,0.124 18.495,0.202C18.631,0.28 18.751,0.372 18.856,0.478C18.963,0.584 19.049,0.709 19.113,0.853C19.178,0.998 19.211,1.168 19.211,1.366M23.287,0.897C23.287,1.178 23.25,1.437 23.176,1.673C23.103,1.91 22.992,2.113 22.845,2.285C22.699,2.456 22.515,2.589 22.293,2.685C22.073,2.781 21.816,2.829 21.526,2.829C21.242,2.829 20.995,2.786 20.784,2.702C20.574,2.618 20.397,2.495 20.258,2.335C20.118,2.174 20.012,1.977 19.944,1.747C19.874,1.519 19.84,1.257 19.84,0.967C19.84,0.686 19.877,0.427 19.949,0.191C20.022,-0.045 20.132,-0.249 20.279,-0.421C20.425,-0.592 20.61,-0.724 20.828,-0.818C21.049,-0.914 21.304,-0.961 21.597,-0.961C21.882,-0.961 22.128,-0.919 22.339,-0.834C22.55,-0.75 22.726,-0.627 22.867,-0.467C23.008,-0.305 23.112,-0.11 23.183,0.119C23.253,0.35 23.287,0.609 23.287,0.897M22.621,0.939C22.621,0.754 22.603,0.577 22.57,0.411C22.536,0.245 22.478,0.1 22.399,-0.026C22.319,-0.151 22.213,-0.249 22.077,-0.323C21.941,-0.396 21.772,-0.433 21.572,-0.433C21.385,-0.433 21.225,-0.399 21.091,-0.332C20.958,-0.266 20.846,-0.172 20.76,-0.051C20.672,0.071 20.608,0.215 20.566,0.381C20.524,0.547 20.503,0.728 20.503,0.925C20.503,1.113 20.52,1.291 20.554,1.457C20.589,1.623 20.645,1.768 20.727,1.891C20.806,2.016 20.915,2.113 21.05,2.187C21.186,2.26 21.354,2.295 21.556,2.295C21.741,2.295 21.9,2.263 22.035,2.196C22.171,2.129 22.281,2.036 22.368,1.916C22.455,1.797 22.52,1.653 22.561,1.487C22.6,1.321 22.621,1.139 22.621,0.939M24.851,2.66C24.851,2.68 24.845,2.698 24.835,2.711C24.826,2.726 24.809,2.737 24.786,2.748C24.762,2.758 24.731,2.766 24.69,2.771C24.649,2.777 24.596,2.779 24.532,2.779C24.472,2.779 24.421,2.777 24.379,2.771C24.338,2.766 24.306,2.758 24.283,2.748C24.257,2.737 24.24,2.726 24.232,2.711C24.223,2.698 24.218,2.68 24.218,2.66L24.218,-2.458C24.218,-2.479 24.223,-2.497 24.232,-2.512C24.24,-2.527 24.257,-2.54 24.283,-2.551C24.306,-2.56 24.338,-2.568 24.379,-2.573C24.421,-2.578 24.472,-2.581 24.532,-2.581C24.596,-2.581 24.649,-2.578 24.69,-2.573C24.731,-2.568 24.762,-2.56 24.786,-2.551C24.809,-2.54 24.826,-2.527 24.835,-2.512C24.845,-2.497 24.851,-2.479 24.851,-2.458L24.851,2.66ZM28.973,2.66C28.973,2.68 28.969,2.698 28.96,2.711C28.951,2.726 28.935,2.737 28.911,2.748C28.889,2.758 28.86,2.766 28.822,2.771C28.785,2.777 28.739,2.779 28.686,2.779C28.627,2.779 28.579,2.777 28.541,2.771C28.505,2.766 28.476,2.758 28.454,2.748C28.431,2.737 28.417,2.726 28.409,2.711C28.402,2.698 28.398,2.68 28.398,2.66L28.398,2.204C28.202,2.421 28.008,2.579 27.816,2.678C27.625,2.779 27.429,2.829 27.234,2.829C27.004,2.829 26.81,2.79 26.653,2.714C26.496,2.637 26.369,2.533 26.273,2.401C26.174,2.269 26.104,2.116 26.064,1.941C26.021,1.767 26,1.554 26,1.304L26,-0.788C26,-0.809 26.004,-0.826 26.014,-0.841C26.023,-0.853 26.04,-0.867 26.065,-0.879C26.091,-0.89 26.123,-0.897 26.165,-0.9C26.206,-0.905 26.257,-0.907 26.318,-0.907C26.38,-0.907 26.431,-0.905 26.471,-0.9C26.512,-0.897 26.545,-0.89 26.57,-0.879C26.594,-0.867 26.611,-0.853 26.62,-0.841C26.631,-0.826 26.636,-0.809 26.636,-0.788L26.636,1.219C26.636,1.421 26.65,1.583 26.681,1.704C26.71,1.826 26.754,1.929 26.814,2.014C26.874,2.1 26.95,2.166 27.042,2.213C27.134,2.262 27.242,2.285 27.365,2.285C27.523,2.285 27.68,2.229 27.837,2.116C27.995,2.004 28.161,1.839 28.338,1.622L28.338,-0.788C28.338,-0.809 28.342,-0.826 28.351,-0.841C28.36,-0.853 28.377,-0.867 28.402,-0.879C28.427,-0.89 28.46,-0.897 28.5,-0.9C28.538,-0.905 28.591,-0.907 28.656,-0.907C28.716,-0.907 28.768,-0.905 28.808,-0.9C28.849,-0.897 28.881,-0.89 28.903,-0.879C28.927,-0.867 28.944,-0.853 28.956,-0.841C28.968,-0.826 28.973,-0.809 28.973,-0.788L28.973,2.66ZM31.934,2.406C31.934,2.481 31.929,2.54 31.92,2.583C31.909,2.626 31.893,2.659 31.872,2.678C31.853,2.7 31.821,2.719 31.781,2.736C31.741,2.754 31.693,2.769 31.64,2.781C31.589,2.792 31.534,2.801 31.474,2.809C31.416,2.817 31.357,2.821 31.299,2.821C31.12,2.821 30.967,2.798 30.837,2.75C30.711,2.702 30.607,2.631 30.524,2.536C30.443,2.439 30.383,2.319 30.346,2.171C30.31,2.025 30.292,1.852 30.292,1.652L30.292,-0.363L29.808,-0.363C29.77,-0.363 29.739,-0.383 29.716,-0.425C29.692,-0.465 29.683,-0.532 29.683,-0.623C29.683,-0.672 29.685,-0.712 29.69,-0.746C29.697,-0.779 29.705,-0.806 29.716,-0.829C29.726,-0.849 29.739,-0.865 29.756,-0.875C29.773,-0.883 29.792,-0.888 29.812,-0.888L30.292,-0.888L30.292,-1.707C30.292,-1.726 30.296,-1.742 30.305,-1.757C30.314,-1.773 30.329,-1.786 30.354,-1.798C30.377,-1.81 30.41,-1.818 30.452,-1.822C30.492,-1.828 30.543,-1.83 30.605,-1.83C30.669,-1.83 30.721,-1.828 30.762,-1.822C30.803,-1.818 30.835,-1.81 30.857,-1.798C30.881,-1.786 30.897,-1.773 30.907,-1.757C30.918,-1.742 30.923,-1.726 30.923,-1.707L30.923,-0.888L31.809,-0.888C31.828,-0.888 31.846,-0.883 31.862,-0.875C31.876,-0.865 31.891,-0.849 31.901,-0.829C31.913,-0.806 31.922,-0.779 31.926,-0.746C31.932,-0.712 31.934,-0.672 31.934,-0.623C31.934,-0.532 31.924,-0.465 31.9,-0.425C31.876,-0.383 31.846,-0.363 31.809,-0.363L30.923,-0.363L30.923,1.56C30.923,1.798 30.959,1.977 31.027,2.099C31.098,2.22 31.224,2.281 31.406,2.281C31.464,2.281 31.516,2.274 31.563,2.264C31.609,2.252 31.65,2.239 31.685,2.228C31.721,2.214 31.752,2.202 31.776,2.191C31.802,2.179 31.825,2.174 31.846,2.174C31.859,2.174 31.871,2.176 31.883,2.183C31.895,2.19 31.903,2.201 31.909,2.22C31.916,2.238 31.922,2.262 31.926,2.291C31.932,2.323 31.934,2.361 31.934,2.406M33.402,2.66C33.402,2.68 33.398,2.698 33.386,2.711C33.377,2.726 33.359,2.737 33.337,2.748C33.313,2.758 33.282,2.766 33.242,2.771C33.2,2.777 33.147,2.779 33.084,2.779C33.023,2.779 32.972,2.777 32.93,2.771C32.89,2.766 32.857,2.758 32.833,2.748C32.808,2.737 32.791,2.726 32.783,2.711C32.774,2.698 32.77,2.68 32.77,2.66L32.77,-0.788C32.77,-0.806 32.774,-0.822 32.783,-0.838C32.791,-0.853 32.808,-0.867 32.833,-0.876C32.857,-0.886 32.89,-0.894 32.93,-0.899C32.972,-0.905 33.023,-0.907 33.084,-0.907C33.147,-0.907 33.2,-0.905 33.242,-0.899C33.282,-0.894 33.313,-0.886 33.337,-0.876C33.359,-0.867 33.377,-0.853 33.386,-0.838C33.398,-0.822 33.402,-0.806 33.402,-0.788L33.402,2.66ZM33.474,-1.953C33.474,-1.804 33.446,-1.704 33.391,-1.65C33.334,-1.596 33.232,-1.57 33.08,-1.57C32.931,-1.57 32.831,-1.596 32.775,-1.648C32.721,-1.701 32.694,-1.799 32.694,-1.945C32.694,-2.093 32.721,-2.194 32.777,-2.248C32.833,-2.301 32.936,-2.329 33.087,-2.329C33.236,-2.329 33.337,-2.302 33.392,-2.25C33.446,-2.198 33.474,-2.099 33.474,-1.953M37.776,0.897C37.776,1.178 37.74,1.437 37.665,1.673C37.591,1.91 37.481,2.113 37.334,2.285C37.188,2.456 37.003,2.589 36.783,2.685C36.562,2.781 36.306,2.829 36.015,2.829C35.731,2.829 35.485,2.786 35.274,2.702C35.063,2.618 34.886,2.495 34.746,2.335C34.607,2.174 34.502,1.977 34.433,1.747C34.364,1.519 34.33,1.257 34.33,0.967C34.33,0.686 34.367,0.427 34.438,0.191C34.512,-0.045 34.621,-0.249 34.767,-0.421C34.914,-0.592 35.098,-0.724 35.318,-0.818C35.537,-0.914 35.794,-0.961 36.087,-0.961C36.371,-0.961 36.618,-0.919 36.828,-0.834C37.039,-0.75 37.216,-0.627 37.355,-0.467C37.496,-0.305 37.602,-0.11 37.672,0.119C37.743,0.35 37.776,0.609 37.776,0.897M37.11,0.939C37.11,0.754 37.093,0.577 37.059,0.411C37.024,0.245 36.966,0.1 36.889,-0.026C36.808,-0.151 36.701,-0.249 36.567,-0.323C36.431,-0.396 36.262,-0.433 36.061,-0.433C35.874,-0.433 35.714,-0.399 35.58,-0.332C35.446,-0.266 35.336,-0.172 35.249,-0.051C35.162,0.071 35.097,0.215 35.055,0.381C35.014,0.547 34.993,0.728 34.993,0.925C34.993,1.113 35.01,1.291 35.043,1.457C35.077,1.623 35.135,1.768 35.216,1.891C35.296,2.016 35.404,2.113 35.539,2.187C35.674,2.26 35.843,2.295 36.045,2.295C36.229,2.295 36.389,2.263 36.523,2.196C36.659,2.129 36.771,2.036 36.857,1.916C36.944,1.797 37.009,1.653 37.05,1.487C37.09,1.321 37.11,1.139 37.11,0.939" style="fill:rgb(241,136,23);fill-rule:nonzero;"/>
                </g>
                <g transform="matrix(1,0,0,1,127.868,35.3801)">
                    <path d="M0,3.453C0,3.472 -0.005,3.491 -0.016,3.504C-0.026,3.518 -0.041,3.53 -0.065,3.54C-0.088,3.551 -0.12,3.559 -0.161,3.564C-0.202,3.569 -0.253,3.572 -0.314,3.572C-0.377,3.572 -0.43,3.569 -0.472,3.564C-0.512,3.559 -0.543,3.551 -0.567,3.54C-0.589,3.53 -0.607,3.518 -0.617,3.504C-0.628,3.491 -0.633,3.472 -0.633,3.453L-0.633,1.434C-0.633,1.237 -0.647,1.078 -0.679,0.959C-0.708,0.839 -0.753,0.736 -0.812,0.648C-0.87,0.562 -0.947,0.495 -1.04,0.449C-1.134,0.403 -1.241,0.38 -1.363,0.38C-1.521,0.38 -1.68,0.436 -1.838,0.549C-1.997,0.661 -2.163,0.826 -2.336,1.043L-2.336,3.453C-2.336,3.472 -2.341,3.491 -2.352,3.504C-2.363,3.518 -2.38,3.53 -2.402,3.54C-2.426,3.551 -2.456,3.559 -2.497,3.564C-2.539,3.569 -2.592,3.572 -2.655,3.572C-2.716,3.572 -2.767,3.569 -2.808,3.564C-2.849,3.559 -2.882,3.551 -2.904,3.54C-2.929,3.53 -2.947,3.518 -2.954,3.504C-2.964,3.491 -2.969,3.472 -2.969,3.453L-2.969,0.005C-2.969,-0.016 -2.965,-0.033 -2.957,-0.048C-2.949,-0.061 -2.935,-0.074 -2.912,-0.086C-2.889,-0.097 -2.86,-0.104 -2.823,-0.108C-2.788,-0.112 -2.741,-0.115 -2.682,-0.115C-2.625,-0.115 -2.579,-0.112 -2.542,-0.108C-2.505,-0.104 -2.476,-0.097 -2.455,-0.086C-2.436,-0.074 -2.421,-0.061 -2.411,-0.048C-2.403,-0.033 -2.398,-0.016 -2.398,0.005L-2.398,0.461C-2.204,0.244 -2.011,0.085 -1.817,-0.016C-1.626,-0.117 -1.43,-0.168 -1.234,-0.168C-1.005,-0.168 -0.811,-0.129 -0.654,-0.05C-0.497,0.027 -0.368,0.131 -0.272,0.261C-0.175,0.392 -0.106,0.545 -0.063,0.718C-0.021,0.894 0,1.104 0,1.349L0,3.453ZM3.318,2.514C3.318,2.691 3.285,2.847 3.219,2.985C3.155,3.123 3.061,3.24 2.941,3.334C2.823,3.428 2.679,3.5 2.513,3.548C2.347,3.597 2.165,3.621 1.964,3.621C1.843,3.621 1.726,3.611 1.614,3.593C1.503,3.573 1.404,3.548 1.316,3.52C1.227,3.491 1.152,3.46 1.092,3.428C1.031,3.395 0.985,3.366 0.957,3.342C0.929,3.316 0.91,3.28 0.896,3.234C0.883,3.189 0.877,3.126 0.877,3.046C0.877,2.998 0.879,2.957 0.885,2.923C0.89,2.89 0.896,2.865 0.904,2.844C0.912,2.822 0.923,2.808 0.937,2.799C0.951,2.79 0.966,2.786 0.983,2.786C1.012,2.786 1.055,2.803 1.11,2.838C1.164,2.872 1.231,2.91 1.312,2.951C1.392,2.991 1.487,3.029 1.598,3.063C1.707,3.099 1.834,3.116 1.976,3.116C2.083,3.116 2.181,3.104 2.268,3.082C2.355,3.058 2.43,3.024 2.494,2.979C2.556,2.935 2.606,2.877 2.641,2.809C2.676,2.74 2.693,2.658 2.693,2.563C2.693,2.467 2.668,2.385 2.618,2.319C2.568,2.252 2.502,2.194 2.42,2.143C2.339,2.091 2.246,2.046 2.145,2.006C2.043,1.967 1.937,1.926 1.829,1.882C1.72,1.838 1.614,1.79 1.511,1.735C1.408,1.679 1.314,1.613 1.234,1.533C1.151,1.454 1.086,1.359 1.036,1.249C0.986,1.14 0.962,1.009 0.962,0.854C0.962,0.72 0.987,0.59 1.04,0.466C1.093,0.342 1.171,0.234 1.276,0.141C1.38,0.047 1.511,-0.027 1.668,-0.083C1.825,-0.139 2.009,-0.168 2.219,-0.168C2.31,-0.168 2.402,-0.16 2.494,-0.144C2.585,-0.13 2.668,-0.111 2.742,-0.087C2.817,-0.065 2.879,-0.04 2.932,-0.012C2.985,0.014 3.024,0.037 3.052,0.058C3.077,0.079 3.095,0.096 3.105,0.112C3.114,0.127 3.121,0.145 3.124,0.164C3.128,0.182 3.131,0.206 3.135,0.235C3.139,0.262 3.142,0.297 3.142,0.338C3.142,0.381 3.139,0.419 3.135,0.45C3.131,0.483 3.126,0.509 3.117,0.529C3.107,0.55 3.097,0.564 3.084,0.573C3.07,0.583 3.056,0.587 3.043,0.587C3.019,0.587 2.986,0.573 2.941,0.545C2.898,0.517 2.842,0.487 2.774,0.454C2.705,0.423 2.624,0.393 2.53,0.364C2.436,0.336 2.331,0.322 2.211,0.322C2.103,0.322 2.009,0.334 1.927,0.359C1.846,0.384 1.777,0.418 1.726,0.462C1.673,0.507 1.633,0.56 1.606,0.622C1.581,0.683 1.567,0.748 1.567,0.821C1.567,0.92 1.593,1.004 1.643,1.072C1.694,1.14 1.76,1.198 1.843,1.249C1.923,1.3 2.017,1.346 2.121,1.388C2.228,1.429 2.333,1.47 2.442,1.513C2.551,1.558 2.658,1.606 2.763,1.66C2.87,1.714 2.964,1.778 3.045,1.855C3.127,1.932 3.193,2.023 3.242,2.131C3.292,2.238 3.318,2.366 3.318,2.514" style="fill:rgb(241,136,23);fill-rule:nonzero;"/>
                </g>
                <g transform="matrix(1,0,0,1,81.1179,24.5831)">
                    <path d="M0,9.702C0,9.759 -0.01,9.805 -0.031,9.844C-0.051,9.88 -0.098,9.911 -0.176,9.937C-0.25,9.963 -0.361,9.981 -0.508,9.991C-0.653,10.001 -0.851,10.007 -1.104,10.007C-1.316,10.007 -1.486,10.001 -1.61,9.991C-1.736,9.981 -1.837,9.96 -1.909,9.934C-1.982,9.906 -2.033,9.869 -2.064,9.828C-2.095,9.785 -2.121,9.733 -2.141,9.674L-3.016,7.488C-3.122,7.241 -3.225,7.021 -3.325,6.831C-3.429,6.64 -3.539,6.48 -3.663,6.351C-3.787,6.222 -3.929,6.126 -4.089,6.059C-4.252,5.995 -4.437,5.961 -4.649,5.961L-5.268,5.961L-5.268,9.689C-5.268,9.738 -5.286,9.785 -5.317,9.823C-5.351,9.864 -5.405,9.898 -5.48,9.921C-5.557,9.947 -5.657,9.968 -5.784,9.983C-5.908,9.999 -6.07,10.007 -6.266,10.007C-6.457,10.007 -6.617,9.999 -6.746,9.983C-6.875,9.968 -6.978,9.947 -7.053,9.921C-7.128,9.898 -7.182,9.864 -7.211,9.823C-7.241,9.785 -7.257,9.738 -7.257,9.689L-7.257,0.807C-7.257,0.585 -7.2,0.425 -7.087,0.327C-6.973,0.229 -6.834,0.18 -6.666,0.18L-4.135,0.18C-3.877,0.18 -3.666,0.185 -3.501,0.196C-3.333,0.205 -3.184,0.219 -3.047,0.232C-2.654,0.288 -2.301,0.384 -1.984,0.521C-1.669,0.657 -1.403,0.833 -1.184,1.052C-0.965,1.271 -0.797,1.531 -0.681,1.831C-0.565,2.13 -0.508,2.476 -0.508,2.863C-0.508,3.191 -0.549,3.49 -0.632,3.758C-0.715,4.029 -0.838,4.269 -0.998,4.48C-1.161,4.692 -1.36,4.875 -1.597,5.032C-1.832,5.188 -2.102,5.314 -2.404,5.409C-2.257,5.481 -2.121,5.567 -1.992,5.667C-1.865,5.768 -1.744,5.889 -1.63,6.033C-1.517,6.178 -1.408,6.34 -1.308,6.524C-1.207,6.709 -1.109,6.916 -1.014,7.148L-0.191,9.075C-0.114,9.266 -0.065,9.408 -0.039,9.496C-0.013,9.583 0,9.653 0,9.702M-2.565,3.067C-2.565,2.744 -2.637,2.473 -2.784,2.252C-2.928,2.03 -3.168,1.872 -3.501,1.782C-3.601,1.756 -3.715,1.736 -3.844,1.723C-3.973,1.707 -4.151,1.7 -4.378,1.7L-5.268,1.7L-5.268,4.473L-4.257,4.473C-3.973,4.473 -3.728,4.439 -3.516,4.369C-3.305,4.303 -3.127,4.207 -2.987,4.083C-2.845,3.959 -2.74,3.812 -2.67,3.642C-2.598,3.469 -2.565,3.278 -2.565,3.067M7.572,6.137C7.572,6.367 7.52,6.539 7.417,6.65C7.314,6.761 7.172,6.815 6.991,6.815L2.887,6.815C2.887,7.104 2.92,7.365 2.987,7.597C3.03,7.74 3.086,7.87 3.158,7.987L1.153,7.987C1.019,7.533 0.952,7.006 0.952,6.408C0.952,5.809 1.029,5.267 1.187,4.787C1.341,4.305 1.568,3.898 1.865,3.562C2.164,3.227 2.526,2.971 2.951,2.796C3.377,2.618 3.857,2.53 4.39,2.53C4.956,2.53 5.438,2.613 5.838,2.78C6.238,2.945 6.568,3.178 6.824,3.472C7.082,3.766 7.27,4.114 7.391,4.519C7.512,4.922 7.572,5.36 7.572,5.832L7.572,6.137ZM5.727,5.592C5.742,5.058 5.637,4.638 5.407,4.333C5.178,4.029 4.824,3.877 4.344,3.877C4.102,3.877 3.893,3.921 3.715,4.011C3.534,4.101 3.387,4.225 3.269,4.377C3.15,4.532 3.06,4.713 2.995,4.922C2.933,5.131 2.897,5.355 2.887,5.592L5.727,5.592ZM9.138,7.987L9.138,2.977C9.138,2.925 9.153,2.881 9.184,2.845C9.212,2.806 9.264,2.772 9.339,2.747C9.411,2.719 9.509,2.698 9.63,2.682C9.749,2.667 9.904,2.659 10.09,2.659C10.278,2.659 10.43,2.667 10.551,2.682C10.672,2.698 10.768,2.719 10.843,2.747C10.915,2.772 10.967,2.806 10.998,2.845C11.029,2.881 11.042,2.925 11.042,2.977L11.042,7.987L9.138,7.987ZM11.186,0.678C11.186,1.062 11.109,1.325 10.951,1.472C10.796,1.62 10.505,1.692 10.082,1.692C9.654,1.692 9.367,1.622 9.218,1.48C9.068,1.338 8.993,1.085 8.993,0.716C8.993,0.335 9.071,0.069 9.225,-0.081C9.378,-0.231 9.669,-0.305 10.097,-0.305C10.52,-0.305 10.81,-0.233 10.959,-0.088C11.111,0.056 11.186,0.311 11.186,0.678M17.483,7.987L17.483,5.856C17.483,5.528 17.46,5.272 17.411,5.084C17.362,4.899 17.295,4.738 17.202,4.604C17.112,4.473 16.996,4.369 16.851,4.295C16.709,4.222 16.542,4.186 16.348,4.186C16.108,4.186 15.863,4.274 15.615,4.45C15.37,4.628 15.112,4.883 14.844,5.221L14.844,7.987L12.94,7.987L12.94,2.961C12.94,2.912 12.953,2.866 12.979,2.829C13.005,2.791 13.049,2.76 13.116,2.734C13.18,2.708 13.265,2.69 13.369,2.677C13.472,2.664 13.601,2.659 13.758,2.659C13.918,2.659 14.052,2.664 14.158,2.677C14.264,2.69 14.346,2.708 14.403,2.734C14.462,2.76 14.504,2.791 14.527,2.829C14.553,2.866 14.566,2.912 14.566,2.961L14.566,3.74C14.939,3.338 15.319,3.033 15.703,2.832C16.088,2.631 16.49,2.53 16.908,2.53C17.367,2.53 17.754,2.605 18.069,2.757C18.384,2.909 18.639,3.113 18.832,3.374C19.026,3.632 19.165,3.936 19.25,4.285C19.338,4.633 19.38,5.051 19.38,5.538L19.38,7.987L17.483,7.987ZM21.58,7.987C21.575,7.894 21.572,7.799 21.572,7.7L21.572,4.246L20.765,4.246C20.669,4.246 20.594,4.186 20.546,4.068C20.494,3.949 20.468,3.753 20.468,3.474C20.468,3.33 20.476,3.206 20.489,3.105C20.502,3.005 20.52,2.925 20.546,2.866C20.569,2.809 20.602,2.767 20.638,2.742C20.677,2.716 20.721,2.703 20.773,2.703L21.572,2.703L21.572,1.199C21.572,1.15 21.585,1.104 21.614,1.065C21.642,1.024 21.694,0.99 21.766,0.962C21.838,0.933 21.936,0.915 22.06,0.902C22.184,0.889 22.336,0.882 22.516,0.882C22.704,0.882 22.859,0.889 22.983,0.902C23.104,0.915 23.203,0.933 23.273,0.962C23.344,0.99 23.393,1.024 23.425,1.065C23.455,1.104 23.468,1.15 23.468,1.199L23.468,2.703L24.937,2.703C24.986,2.703 25.029,2.716 25.069,2.742C25.107,2.767 25.137,2.809 25.164,2.866C25.186,2.925 25.207,3.005 25.22,3.105C25.233,3.206 25.239,3.33 25.239,3.474C25.239,3.753 25.212,3.949 25.164,4.068C25.112,4.186 25.04,4.246 24.943,4.246L23.468,4.246L23.468,7.414C23.468,7.639 23.491,7.83 23.535,7.987L21.58,7.987ZM31.36,7.798C31.36,7.862 31.358,7.925 31.353,7.987L29.506,7.987C29.507,7.975 29.507,7.963 29.507,7.95C29.507,7.798 29.461,7.669 29.369,7.561C29.276,7.452 29.152,7.357 28.997,7.277C28.844,7.197 28.672,7.12 28.475,7.05C28.283,6.98 28.084,6.9 27.879,6.815C27.676,6.73 27.477,6.632 27.281,6.521C27.088,6.41 26.914,6.273 26.76,6.113C26.608,5.951 26.484,5.757 26.391,5.531C26.299,5.304 26.253,5.032 26.253,4.715C26.253,4.393 26.314,4.096 26.44,3.828C26.566,3.557 26.747,3.327 26.984,3.134C27.22,2.943 27.509,2.796 27.849,2.69C28.189,2.584 28.571,2.53 28.995,2.53C29.206,2.53 29.413,2.546 29.61,2.577C29.809,2.605 29.99,2.643 30.15,2.69C30.312,2.734 30.446,2.783 30.558,2.837C30.669,2.889 30.748,2.935 30.798,2.971C30.844,3.01 30.877,3.049 30.898,3.085C30.919,3.124 30.934,3.17 30.945,3.222C30.955,3.276 30.963,3.34 30.971,3.418C30.979,3.498 30.983,3.593 30.983,3.709C30.983,3.846 30.979,3.957 30.971,4.042C30.963,4.127 30.95,4.197 30.931,4.246C30.917,4.297 30.891,4.331 30.861,4.349C30.831,4.367 30.796,4.375 30.756,4.375C30.71,4.375 30.64,4.349 30.545,4.295C30.446,4.243 30.329,4.186 30.184,4.124C30.041,4.065 29.874,4.009 29.686,3.954C29.497,3.903 29.281,3.877 29.041,3.877C28.868,3.877 28.72,3.892 28.594,3.928C28.469,3.965 28.365,4.014 28.285,4.081C28.202,4.145 28.143,4.222 28.102,4.31C28.063,4.398 28.043,4.494 28.043,4.594C28.043,4.749 28.089,4.88 28.187,4.986C28.283,5.092 28.407,5.185 28.564,5.267C28.72,5.347 28.896,5.422 29.098,5.494C29.297,5.564 29.497,5.641 29.701,5.724C29.904,5.806 30.106,5.904 30.305,6.016C30.503,6.126 30.681,6.261 30.839,6.423C30.993,6.583 31.12,6.777 31.216,7.001C31.311,7.225 31.36,7.491 31.36,7.798" style="fill:rgb(241,136,23);fill-rule:nonzero;"/>
                </g>
            </g>
        </g>
    </g>
</svg>
